Coordinates
version=1
nRows=7
nColumns=42
inDegrees=yes

Units are S.I. units (second, meters, Newtons, ...)
If the header above contains a line with 'inDegrees', this indicates whether rotational values are in degrees (yes) or radians (no).

endheader
time	pelvis_tilt	pelvis_list	pelvis_rotation	pelvis_tx	pelvis_ty	pelvis_tz	hip_flexion_r	hip_adduction_r	hip_rotation_r	knee_angle_r	knee_adduction_r	knee_angle_r_beta	ankle_angle_r	subtalar_angle_r	mtp_angle_r	hip_flexion_l	hip_adduction_l	hip_rotation_l	knee_angle_l	knee_adduction_l	knee_angle_l_beta	ankle_angle_l	subtalar_angle_l	mtp_angle_l	lumbar_extension	lumbar_bending	lumbar_rotation	arm_flex_r	arm_add_r	arm_rot_r	elbow_flex_r	pro_sup_r	wrist_flex_r	wrist_dev_r	arm_flex_l	arm_add_l	arm_rot_l	elbow_flex_l	pro_sup_l	wrist_flex_l	wrist_dev_l
      1.98000000	     10.16698279	      0.61629574	      8.71902557	      0.29458716	      0.87764329	      0.15672427	     13.50131361	     -0.24570451	     -5.67160929	     50.44053802	      0.29547775	      0.88035346	     17.12189343	    -14.23040177	     -7.51414828	      1.67004478	      5.85152491	     -2.18590242	     27.83718563	     -5.73662680	      0.48585054	     23.89249811	      1.57369944	     -7.51414828	    -38.12357472	      5.55965061	     -8.32587877	     14.35732489	     -9.47731244	      5.54777305	     38.65217090	     90.00000001	      0.00000000	      0.00000000	     22.05432787	    -16.22309844	      3.25498328	     36.43746389	     90.00000001	      0.00000000	      0.00000000
      1.99000000	     10.16130655	      0.55713514	      8.89818674	      0.30267838	      0.87760881	      0.15658726	     13.80316624	     -0.18145023	     -5.21036991	     47.03824163	      0.77755755	      0.82097219	     16.83580673	    -14.05721006	     -7.51374985	      1.02530838	      5.60220620	     -2.35072172	     27.73995035	     -5.72689333	      0.48415347	     24.54271310	      2.14363244	     -7.51374985	    -38.17749761	      5.71205837	     -8.37460736	     13.99262647	     -9.31738857	      4.88615135	     37.95738938	     90.00000001	      0.00000000	      0.00000000	     22.69868255	    -16.51496102	      4.37898632	     36.93988470	     90.00000001	      0.00000000	      0.00000000
      2.00000000	     10.18189284	      0.53982391	      8.89504724	      0.31093097	      0.87752556	      0.15692964	     13.98078273	     -0.01028952	     -4.41341687	     43.43220596	      1.16514277	      0.75803500	     15.95733940	    -14.85222262	     -7.51256923	      0.33084025	      5.30058442	     -3.04862596	     27.56915832	     -5.74501713	      0.48117258	     25.24195646	      3.67008003	     -7.51256923	    -38.30147401	      5.72128290	     -8.22072174	     13.47016460	     -9.14192454	      3.79680232	     37.61587043	     90.00000001	      0.00000000	      0.00000000	     23.29958796	    -16.88080346	      5.73734045	     37.64968074	     90.00000001	      0.00000000	      0.00000000
      2.01000000	      9.90354899	      0.60517341	      9.07243284	      0.31887672	      0.87662039	      0.15670855	     14.53509689	     -0.21596143	     -4.27943868	     39.97600324	      1.43448087	      0.69771288	     15.90916046	    -14.39133700	     -7.51217942	      0.10963912	      5.31443779	     -3.26863007	     27.70980729	     -5.87983666	      0.48362737	     25.88430561	      3.96588466	     -7.51217942	    -38.08781065	      5.73697418	     -8.36736295	     13.05847271	     -9.06182597	      3.42237309	     37.04583231	     90.00000001	      0.00000000	      0.00000000	     23.90960384	    -17.06543708	      6.29308954	     38.07998455	     90.00000001	      0.00000000	      0.00000000
      2.02000000	      9.50696530	      0.75609713	      9.15523234	      0.32680580	      0.87535180	      0.15660534	     15.24430524	     -0.47857438	     -4.30155759	     36.61620784	      1.41845458	      0.63907339	     15.72546401	    -13.94519082	     -7.51188970	     -0.04837622	      5.55738514	     -3.48927707	     27.71388344	     -6.24087041	      0.48369851	     26.43048672	      4.30699325	     -7.51188970	    -37.76751228	      5.61157573	     -8.48862000	     12.56588354	     -9.02049783	      3.02366199	     36.71531684	     90.00000001	      0.00000000	      0.00000000	     24.45014488	    -17.25301784	      6.77826194	     38.56942048	     90.00000001	      0.00000000	      0.00000000
      2.03000000	      8.89553844	      1.16149250	      8.93139070	      0.33479379	      0.87347418	      0.15706197	     16.57463878	     -1.17957216	     -4.96140091	     34.21380055	      1.32041142	      0.59714347	     15.63160178	    -13.45972115	     -7.51172442	     -0.04409563	      5.92423535	     -3.85935929	     27.68525508	     -6.04411575	      0.48319886	     26.64036160	      4.42997981	     -7.51172442	    -37.27351438	      5.02349136	     -8.42546290	     11.91664832	     -9.04574159	      2.90520725	     36.52552229	     90.00000001	      0.00000000	      0.00000000	     25.00772282	    -17.27147599	      6.91416161	     39.08406373	     90.00000001	      0.00000000	      0.00000000
      2.04000000	      9.49333527	      0.65984893	      9.38549787	      0.34359603	      0.87438532	      0.15703536	     14.89581091	     -0.22652125	     -4.32359068	     28.61146691	      1.38686459	      0.49936430	     15.13089976	    -13.43910162	     -7.51124937	     -1.30158559	      4.88089207	     -4.26948101	     27.62452164	     -6.08133342	      0.48213886	     27.82394719	      5.95554451	     -7.51124937	    -37.92343634	      5.84170422	     -8.33084056	     11.72167928	     -8.85325298	      1.45016385	     35.88200250	     90.00000001	      0.00000000	      0.00000000	     25.53400745	    -17.65223455	      8.34107499	     39.80749047	     90.00000001	      0.00000000	      0.00000000
